# xmcd
#
# Track frame offsets:
#	180
#	18606
#	36823
#	51444
#	66351
#	82746
#	95582
#	111268
#	127481
#	140785
#	154583
#	167710
#	181981
#	197188
#
# Disc length: 2839 seconds
#
# Revision: 1
# Processed by: cddbd v1.5.1PL0 Copyright (c) Steve Scherf et al.
# Submitted via: EasyCDDAExtractor 7.0.9.1
#
DISCID=ce0b150e
DTITLE=Antonio Barros e Ceceu - A forca do forro
DYEAR=1998
DGENRE=Forró
TTITLE0=Por debaixo dos panos - Homencom H - Procurando tu
TTITLE1=Bate coracao
TTITLE2=Mulher comprometida
TTITLE3=Forro na brasa
TTITLE4=Melo do pinto
TTITLE5=Forro dos homens
TTITLE6=No forro da gente
TTITLE7=Como e que a gente faz
TTITLE8=Melo do peru
TTITLE9=Na palma da mao
TTITLE10=Tipo de amor
TTITLE11=Chegou na hora
TTITLE12=Trem de prata
TTITLE13=Passarinho cantou
EXTD=
EXTT0=
EXTT1=
EXTT2=
EXTT3=
EXTT4=
EXTT5=
EXTT6=
EXTT7=
EXTT8=
EXTT9=
EXTT10=
EXTT11=
EXTT12=
EXTT13=
PLAYORDER=
